<mxfile host="app.diagrams.net" agent="Mozilla/5.0 (Windows NT 10.0; Win64; x64) AppleWebKit/537.36 (KHTML, like Gecko) Chrome/141.0.0.0 Safari/537.36" version="28.2.5">
  <diagram id="HO4_3brKdZ2RRdexRG7S" name="Page-1">
    <mxGraphModel dx="3594" dy="1195" grid="1" gridSize="10" guides="1" tooltips="1" connect="1" arrows="1" fold="1" page="1" pageScale="1" pageWidth="1400" pageHeight="2000" math="0" shadow="0">
      <root>
        <mxCell id="0" />
        <mxCell id="1" parent="0" />
        <mxCell id="-bzovc6Q7WTKnxHUFM9s-132" value="MUX6&lt;div&gt;&lt;br&gt;&lt;/div&gt;" style="shape=trapezoid;perimeter=trapezoidPerimeter;whiteSpace=wrap;html=1;fixedSize=1;" vertex="1" parent="1">
          <mxGeometry x="920" y="1100" width="130" height="30" as="geometry" />
        </mxCell>
        <mxCell id="-bzovc6Q7WTKnxHUFM9s-113" value="MUX7&lt;div&gt;&lt;br&gt;&lt;/div&gt;" style="shape=trapezoid;perimeter=trapezoidPerimeter;whiteSpace=wrap;html=1;fixedSize=1;" vertex="1" parent="1">
          <mxGeometry x="1080" y="1100" width="120" height="30" as="geometry" />
        </mxCell>
        <mxCell id="-bzovc6Q7WTKnxHUFM9s-125" value="MUX5&lt;div&gt;&lt;br&gt;&lt;/div&gt;" style="shape=trapezoid;perimeter=trapezoidPerimeter;whiteSpace=wrap;html=1;fixedSize=1;" vertex="1" parent="1">
          <mxGeometry x="1000" y="320" width="80" height="30" as="geometry" />
        </mxCell>
        <mxCell id="qTCJEdfnSMr6oc42xMNw-1" value="RF" style="rounded=1;whiteSpace=wrap;html=1;" parent="1" vertex="1">
          <mxGeometry x="210" y="400" width="150" height="360" as="geometry" />
        </mxCell>
        <mxCell id="qTCJEdfnSMr6oc42xMNw-2" value="ALU" style="rounded=1;whiteSpace=wrap;html=1;" parent="1" vertex="1">
          <mxGeometry x="680" y="400" width="120" height="360" as="geometry" />
        </mxCell>
        <mxCell id="qTCJEdfnSMr6oc42xMNw-3" value="PC" style="rounded=1;whiteSpace=wrap;html=1;" parent="1" vertex="1">
          <mxGeometry x="1010" y="960" width="160" height="80" as="geometry" />
        </mxCell>
        <mxCell id="qTCJEdfnSMr6oc42xMNw-4" value="MUX3&lt;div&gt;&lt;br&gt;&lt;/div&gt;" style="shape=trapezoid;perimeter=trapezoidPerimeter;whiteSpace=wrap;html=1;fixedSize=1;rotation=90;" parent="1" vertex="1">
          <mxGeometry x="560" y="640" width="120" height="40" as="geometry" />
        </mxCell>
        <mxCell id="qTCJEdfnSMr6oc42xMNw-5" value="MUX2&lt;div&gt;&lt;br&gt;&lt;/div&gt;" style="shape=trapezoid;perimeter=trapezoidPerimeter;whiteSpace=wrap;html=1;fixedSize=1;rotation=90;" parent="1" vertex="1">
          <mxGeometry x="550" y="490" width="140" height="40" as="geometry" />
        </mxCell>
        <mxCell id="qTCJEdfnSMr6oc42xMNw-6" value="" style="endArrow=classic;html=1;rounded=0;exitX=0.5;exitY=0;exitDx=0;exitDy=0;entryX=0.007;entryY=0.723;entryDx=0;entryDy=0;entryPerimeter=0;" parent="1" source="qTCJEdfnSMr6oc42xMNw-4" target="qTCJEdfnSMr6oc42xMNw-2" edge="1">
          <mxGeometry width="50" height="50" relative="1" as="geometry">
            <mxPoint x="680" y="780" as="sourcePoint" />
            <mxPoint x="730" y="730" as="targetPoint" />
          </mxGeometry>
        </mxCell>
        <mxCell id="qTCJEdfnSMr6oc42xMNw-15" value="in_b" style="edgeLabel;html=1;align=center;verticalAlign=middle;resizable=0;points=[];" parent="qTCJEdfnSMr6oc42xMNw-6" vertex="1" connectable="0">
          <mxGeometry x="-0.1671" y="-1" relative="1" as="geometry">
            <mxPoint x="33" y="-1" as="offset" />
          </mxGeometry>
        </mxCell>
        <mxCell id="qTCJEdfnSMr6oc42xMNw-7" value="" style="endArrow=classic;html=1;rounded=0;exitX=0.5;exitY=0;exitDx=0;exitDy=0;entryX=0;entryY=0.743;entryDx=0;entryDy=0;entryPerimeter=0;" parent="1" edge="1">
          <mxGeometry width="50" height="50" relative="1" as="geometry">
            <mxPoint x="640" y="509.8" as="sourcePoint" />
            <mxPoint x="680" y="509.8" as="targetPoint" />
          </mxGeometry>
        </mxCell>
        <mxCell id="qTCJEdfnSMr6oc42xMNw-14" value="in a" style="edgeLabel;html=1;align=center;verticalAlign=middle;resizable=0;points=[];" parent="qTCJEdfnSMr6oc42xMNw-7" vertex="1" connectable="0">
          <mxGeometry x="-0.081" y="-1" relative="1" as="geometry">
            <mxPoint x="31" y="-1" as="offset" />
          </mxGeometry>
        </mxCell>
        <mxCell id="qTCJEdfnSMr6oc42xMNw-8" value="" style="endArrow=classic;html=1;rounded=0;entryX=0.281;entryY=1.01;entryDx=0;entryDy=0;exitX=0.994;exitY=0.223;exitDx=0;exitDy=0;exitPerimeter=0;entryPerimeter=0;" parent="1" source="qTCJEdfnSMr6oc42xMNw-1" target="qTCJEdfnSMr6oc42xMNw-5" edge="1">
          <mxGeometry width="50" height="50" relative="1" as="geometry">
            <mxPoint x="420" y="535" as="sourcePoint" />
            <mxPoint x="470" y="485" as="targetPoint" />
          </mxGeometry>
        </mxCell>
        <mxCell id="qTCJEdfnSMr6oc42xMNw-24" value="RD1" style="edgeLabel;html=1;align=center;verticalAlign=middle;resizable=0;points=[];" parent="qTCJEdfnSMr6oc42xMNw-8" vertex="1" connectable="0">
          <mxGeometry x="0.1467" y="-2" relative="1" as="geometry">
            <mxPoint x="-157" as="offset" />
          </mxGeometry>
        </mxCell>
        <mxCell id="-bzovc6Q7WTKnxHUFM9s-171" value="0" style="edgeLabel;html=1;align=center;verticalAlign=middle;resizable=0;points=[];" vertex="1" connectable="0" parent="qTCJEdfnSMr6oc42xMNw-8">
          <mxGeometry x="0.1895" y="-1" relative="1" as="geometry">
            <mxPoint x="108" as="offset" />
          </mxGeometry>
        </mxCell>
        <mxCell id="qTCJEdfnSMr6oc42xMNw-9" value="MUX1" style="shape=trapezoid;perimeter=trapezoidPerimeter;whiteSpace=wrap;html=1;fixedSize=1;rotation=90;" parent="1" vertex="1">
          <mxGeometry x="70" y="570" width="140" height="40" as="geometry" />
        </mxCell>
        <mxCell id="qTCJEdfnSMr6oc42xMNw-10" value="" style="endArrow=classic;html=1;rounded=0;entryX=0.281;entryY=1.01;entryDx=0;entryDy=0;exitX=0.994;exitY=0.223;exitDx=0;exitDy=0;exitPerimeter=0;entryPerimeter=0;" parent="1" edge="1">
          <mxGeometry width="50" height="50" relative="1" as="geometry">
            <mxPoint x="360" y="631" as="sourcePoint" />
            <mxPoint x="601" y="630" as="targetPoint" />
          </mxGeometry>
        </mxCell>
        <mxCell id="qTCJEdfnSMr6oc42xMNw-25" value="RD2" style="edgeLabel;html=1;align=center;verticalAlign=middle;resizable=0;points=[];" parent="qTCJEdfnSMr6oc42xMNw-10" vertex="1" connectable="0">
          <mxGeometry x="0.2546" y="2" relative="1" as="geometry">
            <mxPoint x="-171" as="offset" />
          </mxGeometry>
        </mxCell>
        <mxCell id="-bzovc6Q7WTKnxHUFM9s-173" value="00" style="edgeLabel;html=1;align=center;verticalAlign=middle;resizable=0;points=[];" vertex="1" connectable="0" parent="qTCJEdfnSMr6oc42xMNw-10">
          <mxGeometry x="0.4642" y="2" relative="1" as="geometry">
            <mxPoint x="73" y="2" as="offset" />
          </mxGeometry>
        </mxCell>
        <mxCell id="qTCJEdfnSMr6oc42xMNw-11" value="" style="endArrow=classic;html=1;rounded=0;exitX=0.5;exitY=0;exitDx=0;exitDy=0;entryX=-0.008;entryY=0.527;entryDx=0;entryDy=0;entryPerimeter=0;" parent="1" target="qTCJEdfnSMr6oc42xMNw-1" edge="1">
          <mxGeometry width="50" height="50" relative="1" as="geometry">
            <mxPoint x="160" y="589.5799999999999" as="sourcePoint" />
            <mxPoint x="201" y="589.5799999999999" as="targetPoint" />
          </mxGeometry>
        </mxCell>
        <mxCell id="-bzovc6Q7WTKnxHUFM9s-190" value="IN" style="edgeLabel;html=1;align=center;verticalAlign=middle;resizable=0;points=[];" vertex="1" connectable="0" parent="qTCJEdfnSMr6oc42xMNw-11">
          <mxGeometry x="-0.1951" y="-1" relative="1" as="geometry">
            <mxPoint x="41" y="-1" as="offset" />
          </mxGeometry>
        </mxCell>
        <mxCell id="qTCJEdfnSMr6oc42xMNw-12" value="" style="endArrow=classic;html=1;rounded=0;entryX=0.5;entryY=1;entryDx=0;entryDy=0;" parent="1" target="qTCJEdfnSMr6oc42xMNw-2" edge="1">
          <mxGeometry width="50" height="50" relative="1" as="geometry">
            <mxPoint x="740" y="840" as="sourcePoint" />
            <mxPoint x="530" y="740" as="targetPoint" />
          </mxGeometry>
        </mxCell>
        <mxCell id="qTCJEdfnSMr6oc42xMNw-13" value="opcode" style="edgeLabel;html=1;align=center;verticalAlign=middle;resizable=0;points=[];" parent="qTCJEdfnSMr6oc42xMNw-12" vertex="1" connectable="0">
          <mxGeometry x="-0.0483" y="1" relative="1" as="geometry">
            <mxPoint y="-52" as="offset" />
          </mxGeometry>
        </mxCell>
        <mxCell id="qTCJEdfnSMr6oc42xMNw-17" value="" style="endArrow=classic;html=1;rounded=0;entryX=0.338;entryY=1;entryDx=0;entryDy=0;entryPerimeter=0;" parent="1" edge="1">
          <mxGeometry width="50" height="50" relative="1" as="geometry">
            <mxPoint x="270.3" y="840" as="sourcePoint" />
            <mxPoint x="269.99999999999983" y="760" as="targetPoint" />
          </mxGeometry>
        </mxCell>
        <mxCell id="qTCJEdfnSMr6oc42xMNw-21" value="raddr1" style="edgeLabel;html=1;align=center;verticalAlign=middle;resizable=0;points=[];" parent="qTCJEdfnSMr6oc42xMNw-17" vertex="1" connectable="0">
          <mxGeometry x="0.0069" y="-1" relative="1" as="geometry">
            <mxPoint y="-50" as="offset" />
          </mxGeometry>
        </mxCell>
        <mxCell id="-bzovc6Q7WTKnxHUFM9s-92" value="rs1" style="edgeLabel;html=1;align=center;verticalAlign=middle;resizable=0;points=[];" vertex="1" connectable="0" parent="qTCJEdfnSMr6oc42xMNw-17">
          <mxGeometry x="-0.3768" y="1" relative="1" as="geometry">
            <mxPoint x="-10" y="23" as="offset" />
          </mxGeometry>
        </mxCell>
        <mxCell id="qTCJEdfnSMr6oc42xMNw-19" value="" style="endArrow=classic;html=1;rounded=0;entryX=0.25;entryY=1;entryDx=0;entryDy=0;" parent="1" edge="1">
          <mxGeometry width="50" height="50" relative="1" as="geometry">
            <mxPoint x="310.34" y="840" as="sourcePoint" />
            <mxPoint x="309.99999999999994" y="760" as="targetPoint" />
          </mxGeometry>
        </mxCell>
        <mxCell id="qTCJEdfnSMr6oc42xMNw-22" value="raddr2" style="edgeLabel;html=1;align=center;verticalAlign=middle;resizable=0;points=[];" parent="qTCJEdfnSMr6oc42xMNw-19" vertex="1" connectable="0">
          <mxGeometry x="-0.1655" y="3" relative="1" as="geometry">
            <mxPoint x="3" y="-57" as="offset" />
          </mxGeometry>
        </mxCell>
        <mxCell id="-bzovc6Q7WTKnxHUFM9s-93" value="rs2" style="edgeLabel;html=1;align=center;verticalAlign=middle;resizable=0;points=[];" vertex="1" connectable="0" parent="qTCJEdfnSMr6oc42xMNw-19">
          <mxGeometry x="-0.3" relative="1" as="geometry">
            <mxPoint x="-10" y="28" as="offset" />
          </mxGeometry>
        </mxCell>
        <mxCell id="qTCJEdfnSMr6oc42xMNw-20" value="" style="endArrow=classic;html=1;rounded=0;entryX=0.25;entryY=1;entryDx=0;entryDy=0;" parent="1" edge="1">
          <mxGeometry width="50" height="50" relative="1" as="geometry">
            <mxPoint x="340" y="840" as="sourcePoint" />
            <mxPoint x="340" y="760" as="targetPoint" />
          </mxGeometry>
        </mxCell>
        <mxCell id="qTCJEdfnSMr6oc42xMNw-23" value="rd" style="edgeLabel;html=1;align=center;verticalAlign=middle;resizable=0;points=[];" parent="qTCJEdfnSMr6oc42xMNw-20" vertex="1" connectable="0">
          <mxGeometry x="-0.2556" relative="1" as="geometry">
            <mxPoint y="-60" as="offset" />
          </mxGeometry>
        </mxCell>
        <mxCell id="-bzovc6Q7WTKnxHUFM9s-94" value="rd" style="edgeLabel;html=1;align=center;verticalAlign=middle;resizable=0;points=[];" vertex="1" connectable="0" parent="qTCJEdfnSMr6oc42xMNw-20">
          <mxGeometry x="-0.3714" relative="1" as="geometry">
            <mxPoint x="-10" y="25" as="offset" />
          </mxGeometry>
        </mxCell>
        <mxCell id="qTCJEdfnSMr6oc42xMNw-26" value="MUX4&lt;div&gt;&lt;br&gt;&lt;/div&gt;" style="shape=trapezoid;perimeter=trapezoidPerimeter;whiteSpace=wrap;html=1;fixedSize=1;rotation=-90;" parent="1" vertex="1">
          <mxGeometry x="670" y="190" width="140" height="40" as="geometry" />
        </mxCell>
        <mxCell id="qTCJEdfnSMr6oc42xMNw-27" value="" style="endArrow=classic;html=1;rounded=0;exitX=0.5;exitY=0;exitDx=0;exitDy=0;entryX=0.75;entryY=1;entryDx=0;entryDy=0;" parent="1" source="qTCJEdfnSMr6oc42xMNw-3" target="-bzovc6Q7WTKnxHUFM9s-1" edge="1">
          <mxGeometry width="50" height="50" relative="1" as="geometry">
            <mxPoint x="750" y="980" as="sourcePoint" />
            <mxPoint x="910" y="640" as="targetPoint" />
            <Array as="points">
              <mxPoint x="1090" y="920" />
            </Array>
          </mxGeometry>
        </mxCell>
        <mxCell id="-bzovc6Q7WTKnxHUFM9s-185" value="out" style="edgeLabel;html=1;align=center;verticalAlign=middle;resizable=0;points=[];" vertex="1" connectable="0" parent="qTCJEdfnSMr6oc42xMNw-27">
          <mxGeometry x="-0.6903" y="-2" relative="1" as="geometry">
            <mxPoint x="-2" y="112" as="offset" />
          </mxGeometry>
        </mxCell>
        <mxCell id="qTCJEdfnSMr6oc42xMNw-28" value="" style="endArrow=classic;html=1;rounded=0;entryX=0.25;entryY=1;entryDx=0;entryDy=0;exitX=1;exitY=0.5;exitDx=0;exitDy=0;" parent="1" source="qTCJEdfnSMr6oc42xMNw-2" target="qTCJEdfnSMr6oc42xMNw-26" edge="1">
          <mxGeometry width="50" height="50" relative="1" as="geometry">
            <mxPoint x="860" y="570" as="sourcePoint" />
            <mxPoint x="90" y="570" as="targetPoint" />
            <Array as="points">
              <mxPoint x="860" y="580" />
              <mxPoint x="860" y="245" />
            </Array>
          </mxGeometry>
        </mxCell>
        <mxCell id="-bzovc6Q7WTKnxHUFM9s-28" value="out" style="edgeLabel;html=1;align=center;verticalAlign=middle;resizable=0;points=[];" vertex="1" connectable="0" parent="qTCJEdfnSMr6oc42xMNw-28">
          <mxGeometry x="-0.8649" y="-1" relative="1" as="geometry">
            <mxPoint x="-53" y="-1" as="offset" />
          </mxGeometry>
        </mxCell>
        <mxCell id="-bzovc6Q7WTKnxHUFM9s-160" value="0" style="edgeLabel;html=1;align=center;verticalAlign=middle;resizable=0;points=[];" vertex="1" connectable="0" parent="qTCJEdfnSMr6oc42xMNw-28">
          <mxGeometry x="0.7251" y="2" relative="1" as="geometry">
            <mxPoint x="-78" as="offset" />
          </mxGeometry>
        </mxCell>
        <mxCell id="qTCJEdfnSMr6oc42xMNw-29" value="" style="endArrow=classic;html=1;rounded=0;exitX=0.5;exitY=0;exitDx=0;exitDy=0;entryX=0.25;entryY=1;entryDx=0;entryDy=0;" parent="1" source="qTCJEdfnSMr6oc42xMNw-26" target="qTCJEdfnSMr6oc42xMNw-9" edge="1">
          <mxGeometry width="50" height="50" relative="1" as="geometry">
            <mxPoint x="40" y="580" as="sourcePoint" />
            <mxPoint x="90" y="530" as="targetPoint" />
            <Array as="points">
              <mxPoint x="60" y="210" />
              <mxPoint x="60" y="555" />
            </Array>
          </mxGeometry>
        </mxCell>
        <mxCell id="-bzovc6Q7WTKnxHUFM9s-176" value="0" style="edgeLabel;html=1;align=center;verticalAlign=middle;resizable=0;points=[];" vertex="1" connectable="0" parent="qTCJEdfnSMr6oc42xMNw-29">
          <mxGeometry x="0.8324" y="-1" relative="1" as="geometry">
            <mxPoint x="70" y="29" as="offset" />
          </mxGeometry>
        </mxCell>
        <mxCell id="qTCJEdfnSMr6oc42xMNw-30" value="Extend" style="rounded=0;whiteSpace=wrap;html=1;" parent="1" vertex="1">
          <mxGeometry x="360" y="960" width="120" height="40" as="geometry" />
        </mxCell>
        <mxCell id="qTCJEdfnSMr6oc42xMNw-31" value="" style="endArrow=classic;html=1;rounded=0;entryX=0.5;entryY=1;entryDx=0;entryDy=0;exitX=1;exitY=0.5;exitDx=0;exitDy=0;" parent="1" target="qTCJEdfnSMr6oc42xMNw-4" edge="1" source="qTCJEdfnSMr6oc42xMNw-30">
          <mxGeometry width="50" height="50" relative="1" as="geometry">
            <mxPoint x="480" y="1060" as="sourcePoint" />
            <mxPoint x="560.0000000000002" y="660" as="targetPoint" />
            <Array as="points">
              <mxPoint x="520" y="980" />
              <mxPoint x="520" y="660" />
            </Array>
          </mxGeometry>
        </mxCell>
        <mxCell id="-bzovc6Q7WTKnxHUFM9s-174" value="01" style="edgeLabel;html=1;align=center;verticalAlign=middle;resizable=0;points=[];" vertex="1" connectable="0" parent="qTCJEdfnSMr6oc42xMNw-31">
          <mxGeometry x="0.7344" y="1" relative="1" as="geometry">
            <mxPoint x="69" y="1" as="offset" />
          </mxGeometry>
        </mxCell>
        <mxCell id="-bzovc6Q7WTKnxHUFM9s-187" value="out" style="edgeLabel;html=1;align=center;verticalAlign=middle;resizable=0;points=[];" vertex="1" connectable="0" parent="qTCJEdfnSMr6oc42xMNw-31">
          <mxGeometry x="-0.8832" y="-1" relative="1" as="geometry">
            <mxPoint x="-35" as="offset" />
          </mxGeometry>
        </mxCell>
        <mxCell id="qTCJEdfnSMr6oc42xMNw-32" value="" style="endArrow=classic;html=1;rounded=0;entryX=0.5;entryY=1;entryDx=0;entryDy=0;" parent="1" target="qTCJEdfnSMr6oc42xMNw-5" edge="1">
          <mxGeometry width="50" height="50" relative="1" as="geometry">
            <mxPoint x="520" y="610" as="sourcePoint" />
            <mxPoint x="590" y="565" as="targetPoint" />
            <Array as="points">
              <mxPoint x="520" y="550" />
              <mxPoint x="520" y="510" />
            </Array>
          </mxGeometry>
        </mxCell>
        <mxCell id="-bzovc6Q7WTKnxHUFM9s-172" value="1" style="edgeLabel;html=1;align=center;verticalAlign=middle;resizable=0;points=[];" vertex="1" connectable="0" parent="qTCJEdfnSMr6oc42xMNw-32">
          <mxGeometry x="-0.1397" relative="1" as="geometry">
            <mxPoint x="90" y="-23" as="offset" />
          </mxGeometry>
        </mxCell>
        <mxCell id="qTCJEdfnSMr6oc42xMNw-33" value="" style="endArrow=none;html=1;rounded=0;curved=1;" parent="1" edge="1">
          <mxGeometry width="50" height="50" relative="1" as="geometry">
            <mxPoint x="520" y="650" as="sourcePoint" />
            <mxPoint x="520" y="610" as="targetPoint" />
            <Array as="points">
              <mxPoint x="490" y="630" />
            </Array>
          </mxGeometry>
        </mxCell>
        <mxCell id="qTCJEdfnSMr6oc42xMNw-34" value="" style="endArrow=none;html=1;rounded=0;" parent="1" edge="1">
          <mxGeometry width="50" height="50" relative="1" as="geometry">
            <mxPoint x="520" y="660" as="sourcePoint" />
            <mxPoint x="520" y="650" as="targetPoint" />
          </mxGeometry>
        </mxCell>
        <mxCell id="qTCJEdfnSMr6oc42xMNw-35" value="" style="endArrow=classic;html=1;rounded=0;entryX=0;entryY=0.5;entryDx=0;entryDy=0;" parent="1" target="qTCJEdfnSMr6oc42xMNw-30" edge="1">
          <mxGeometry width="50" height="50" relative="1" as="geometry">
            <mxPoint x="260" y="980" as="sourcePoint" />
            <mxPoint x="320" y="1030" as="targetPoint" />
          </mxGeometry>
        </mxCell>
        <mxCell id="qTCJEdfnSMr6oc42xMNw-36" value="Imm" style="edgeLabel;html=1;align=center;verticalAlign=middle;resizable=0;points=[];" parent="qTCJEdfnSMr6oc42xMNw-35" vertex="1" connectable="0">
          <mxGeometry x="-0.1786" relative="1" as="geometry">
            <mxPoint y="-10" as="offset" />
          </mxGeometry>
        </mxCell>
        <mxCell id="-bzovc6Q7WTKnxHUFM9s-186" value="in" style="edgeLabel;html=1;align=center;verticalAlign=middle;resizable=0;points=[];" vertex="1" connectable="0" parent="qTCJEdfnSMr6oc42xMNw-35">
          <mxGeometry x="0.2412" y="2" relative="1" as="geometry">
            <mxPoint x="48" as="offset" />
          </mxGeometry>
        </mxCell>
        <mxCell id="qTCJEdfnSMr6oc42xMNw-37" value="" style="endArrow=classic;html=1;rounded=0;entryX=0.75;entryY=1;entryDx=0;entryDy=0;" parent="1" target="qTCJEdfnSMr6oc42xMNw-4" edge="1">
          <mxGeometry width="50" height="50" relative="1" as="geometry">
            <mxPoint x="560" y="800" as="sourcePoint" />
            <mxPoint x="340" y="670" as="targetPoint" />
            <Array as="points">
              <mxPoint x="560" y="690" />
            </Array>
          </mxGeometry>
        </mxCell>
        <mxCell id="qTCJEdfnSMr6oc42xMNw-38" value="32&#39;hC" style="edgeLabel;html=1;align=center;verticalAlign=middle;resizable=0;points=[];" parent="qTCJEdfnSMr6oc42xMNw-37" vertex="1" connectable="0">
          <mxGeometry x="-0.4551" y="-2" relative="1" as="geometry">
            <mxPoint x="18" y="31" as="offset" />
          </mxGeometry>
        </mxCell>
        <mxCell id="-bzovc6Q7WTKnxHUFM9s-175" value="10" style="edgeLabel;html=1;align=center;verticalAlign=middle;resizable=0;points=[];" vertex="1" connectable="0" parent="qTCJEdfnSMr6oc42xMNw-37">
          <mxGeometry x="-0.0786" relative="1" as="geometry">
            <mxPoint x="50" y="-41" as="offset" />
          </mxGeometry>
        </mxCell>
        <mxCell id="qTCJEdfnSMr6oc42xMNw-39" value="" style="endArrow=classic;html=1;rounded=0;" parent="1" target="qTCJEdfnSMr6oc42xMNw-4" edge="1">
          <mxGeometry width="50" height="50" relative="1" as="geometry">
            <mxPoint x="620" y="780" as="sourcePoint" />
            <mxPoint x="400" y="600" as="targetPoint" />
          </mxGeometry>
        </mxCell>
        <mxCell id="qTCJEdfnSMr6oc42xMNw-40" value="if R: 00&lt;div&gt;if I: 01&lt;/div&gt;&lt;div&gt;if U_c: 10&lt;/div&gt;" style="edgeLabel;html=1;align=center;verticalAlign=middle;resizable=0;points=[];" parent="qTCJEdfnSMr6oc42xMNw-39" vertex="1" connectable="0">
          <mxGeometry x="-0.4694" relative="1" as="geometry">
            <mxPoint x="30" y="-1" as="offset" />
          </mxGeometry>
        </mxCell>
        <mxCell id="-bzovc6Q7WTKnxHUFM9s-182" value="MX3S" style="edgeLabel;html=1;align=center;verticalAlign=middle;resizable=0;points=[];rotation=-25;" vertex="1" connectable="0" parent="qTCJEdfnSMr6oc42xMNw-39">
          <mxGeometry x="0.034" relative="1" as="geometry">
            <mxPoint y="-44" as="offset" />
          </mxGeometry>
        </mxCell>
        <mxCell id="qTCJEdfnSMr6oc42xMNw-41" value="" style="endArrow=classic;html=1;rounded=0;entryX=0;entryY=0.5;entryDx=0;entryDy=0;" parent="1" target="qTCJEdfnSMr6oc42xMNw-5" edge="1">
          <mxGeometry width="50" height="50" relative="1" as="geometry">
            <mxPoint x="620" y="380" as="sourcePoint" />
            <mxPoint x="400" y="600" as="targetPoint" />
          </mxGeometry>
        </mxCell>
        <mxCell id="qTCJEdfnSMr6oc42xMNw-42" value="if R: 0&lt;div&gt;if I: 0&lt;br&gt;&lt;div&gt;if U_c: 1&lt;/div&gt;&lt;/div&gt;" style="edgeLabel;html=1;align=center;verticalAlign=middle;resizable=0;points=[];" parent="qTCJEdfnSMr6oc42xMNw-41" vertex="1" connectable="0">
          <mxGeometry x="-0.254" y="2" relative="1" as="geometry">
            <mxPoint x="-32" y="6" as="offset" />
          </mxGeometry>
        </mxCell>
        <mxCell id="-bzovc6Q7WTKnxHUFM9s-181" value="MX2S" style="edgeLabel;html=1;align=center;verticalAlign=middle;resizable=0;points=[];rotation=30;" vertex="1" connectable="0" parent="qTCJEdfnSMr6oc42xMNw-41">
          <mxGeometry x="-0.1973" y="1" relative="1" as="geometry">
            <mxPoint y="52" as="offset" />
          </mxGeometry>
        </mxCell>
        <mxCell id="qTCJEdfnSMr6oc42xMNw-43" value="" style="endArrow=classic;html=1;rounded=0;entryX=1;entryY=0.5;entryDx=0;entryDy=0;" parent="1" target="qTCJEdfnSMr6oc42xMNw-26" edge="1">
          <mxGeometry width="50" height="50" relative="1" as="geometry">
            <mxPoint x="740" y="60" as="sourcePoint" />
            <mxPoint x="830" y="210" as="targetPoint" />
          </mxGeometry>
        </mxCell>
        <mxCell id="qTCJEdfnSMr6oc42xMNw-44" value="if JAL: 1&lt;div&gt;if JALR: 1&lt;/div&gt;&lt;div&gt;if U_c: 1&lt;/div&gt;&lt;div&gt;else: 0&lt;/div&gt;" style="edgeLabel;html=1;align=center;verticalAlign=middle;resizable=0;points=[];" parent="qTCJEdfnSMr6oc42xMNw-43" vertex="1" connectable="0">
          <mxGeometry x="0.0952" y="1" relative="1" as="geometry">
            <mxPoint x="29" y="-29" as="offset" />
          </mxGeometry>
        </mxCell>
        <mxCell id="-bzovc6Q7WTKnxHUFM9s-183" value="MX4S" style="edgeLabel;html=1;align=center;verticalAlign=middle;resizable=0;points=[];rotation=-25;" vertex="1" connectable="0" parent="qTCJEdfnSMr6oc42xMNw-43">
          <mxGeometry x="0.0601" y="-1" relative="1" as="geometry">
            <mxPoint y="53" as="offset" />
          </mxGeometry>
        </mxCell>
        <mxCell id="-bzovc6Q7WTKnxHUFM9s-1" value="Adder" style="rounded=0;whiteSpace=wrap;html=1;" vertex="1" parent="1">
          <mxGeometry x="1000" y="240" width="120" height="60" as="geometry" />
        </mxCell>
        <mxCell id="-bzovc6Q7WTKnxHUFM9s-2" value="" style="endArrow=classic;html=1;rounded=0;entryX=0.25;entryY=1;entryDx=0;entryDy=0;" edge="1" parent="1" target="-bzovc6Q7WTKnxHUFM9s-125">
          <mxGeometry width="50" height="50" relative="1" as="geometry">
            <mxPoint x="860" y="580" as="sourcePoint" />
            <mxPoint x="990" y="436" as="targetPoint" />
            <Array as="points">
              <mxPoint x="1020" y="580" />
            </Array>
          </mxGeometry>
        </mxCell>
        <mxCell id="-bzovc6Q7WTKnxHUFM9s-157" value="0" style="edgeLabel;html=1;align=center;verticalAlign=middle;resizable=0;points=[];" vertex="1" connectable="0" parent="-bzovc6Q7WTKnxHUFM9s-2">
          <mxGeometry x="0.5068" y="1" relative="1" as="geometry">
            <mxPoint x="1" y="-106" as="offset" />
          </mxGeometry>
        </mxCell>
        <mxCell id="-bzovc6Q7WTKnxHUFM9s-3" value="" style="endArrow=classic;html=1;rounded=0;entryX=0.75;entryY=1;entryDx=0;entryDy=0;exitX=0.5;exitY=0;exitDx=0;exitDy=0;" edge="1" parent="1" source="-bzovc6Q7WTKnxHUFM9s-1" target="qTCJEdfnSMr6oc42xMNw-26">
          <mxGeometry width="50" height="50" relative="1" as="geometry">
            <mxPoint x="700" y="500" as="sourcePoint" />
            <mxPoint x="1180" y="20" as="targetPoint" />
            <Array as="points">
              <mxPoint x="1060" y="175" />
            </Array>
          </mxGeometry>
        </mxCell>
        <mxCell id="-bzovc6Q7WTKnxHUFM9s-159" value="1" style="edgeLabel;html=1;align=center;verticalAlign=middle;resizable=0;points=[];" vertex="1" connectable="0" parent="-bzovc6Q7WTKnxHUFM9s-3">
          <mxGeometry x="0.5252" relative="1" as="geometry">
            <mxPoint x="-96" as="offset" />
          </mxGeometry>
        </mxCell>
        <mxCell id="-bzovc6Q7WTKnxHUFM9s-5" value="" style="endArrow=classic;html=1;rounded=0;" edge="1" parent="1">
          <mxGeometry width="50" height="50" relative="1" as="geometry">
            <mxPoint x="1110" y="580" as="sourcePoint" />
            <mxPoint x="1280" y="580" as="targetPoint" />
          </mxGeometry>
        </mxCell>
        <mxCell id="-bzovc6Q7WTKnxHUFM9s-8" value="Addr" style="edgeLabel;html=1;align=center;verticalAlign=middle;resizable=0;points=[];" vertex="1" connectable="0" parent="-bzovc6Q7WTKnxHUFM9s-5">
          <mxGeometry x="0.1696" y="-3" relative="1" as="geometry">
            <mxPoint x="37" y="7" as="offset" />
          </mxGeometry>
        </mxCell>
        <mxCell id="-bzovc6Q7WTKnxHUFM9s-6" value="" style="endArrow=none;html=1;rounded=0;curved=1;" edge="1" parent="1">
          <mxGeometry width="50" height="50" relative="1" as="geometry">
            <mxPoint x="1070" y="580" as="sourcePoint" />
            <mxPoint x="1110" y="580" as="targetPoint" />
            <Array as="points">
              <mxPoint x="1090" y="550" />
            </Array>
          </mxGeometry>
        </mxCell>
        <mxCell id="-bzovc6Q7WTKnxHUFM9s-7" value="" style="endArrow=none;html=1;rounded=0;" edge="1" parent="1">
          <mxGeometry width="50" height="50" relative="1" as="geometry">
            <mxPoint x="1020" y="580" as="sourcePoint" />
            <mxPoint x="1070" y="580" as="targetPoint" />
          </mxGeometry>
        </mxCell>
        <mxCell id="-bzovc6Q7WTKnxHUFM9s-18" value="Extend" style="rounded=0;whiteSpace=wrap;html=1;" vertex="1" parent="1">
          <mxGeometry x="320" y="80" width="120" height="40" as="geometry" />
        </mxCell>
        <mxCell id="-bzovc6Q7WTKnxHUFM9s-19" value="" style="endArrow=classic;html=1;rounded=0;entryX=1;entryY=0.5;entryDx=0;entryDy=0;" edge="1" parent="1" target="-bzovc6Q7WTKnxHUFM9s-18">
          <mxGeometry width="50" height="50" relative="1" as="geometry">
            <mxPoint x="520" y="100" as="sourcePoint" />
            <mxPoint x="720" y="380" as="targetPoint" />
          </mxGeometry>
        </mxCell>
        <mxCell id="-bzovc6Q7WTKnxHUFM9s-20" value="DIN" style="edgeLabel;html=1;align=center;verticalAlign=middle;resizable=0;points=[];" vertex="1" connectable="0" parent="-bzovc6Q7WTKnxHUFM9s-19">
          <mxGeometry x="-0.1676" y="-2" relative="1" as="geometry">
            <mxPoint x="20" y="-7" as="offset" />
          </mxGeometry>
        </mxCell>
        <mxCell id="-bzovc6Q7WTKnxHUFM9s-21" value="" style="endArrow=classic;html=1;rounded=0;entryX=0.582;entryY=-0.004;entryDx=0;entryDy=0;entryPerimeter=0;" edge="1" parent="1" target="-bzovc6Q7WTKnxHUFM9s-18">
          <mxGeometry width="50" height="50" relative="1" as="geometry">
            <mxPoint x="390" y="40" as="sourcePoint" />
            <mxPoint x="440" y="-10" as="targetPoint" />
          </mxGeometry>
        </mxCell>
        <mxCell id="-bzovc6Q7WTKnxHUFM9s-22" value="Signed" style="edgeLabel;html=1;align=center;verticalAlign=middle;resizable=0;points=[];" vertex="1" connectable="0" parent="-bzovc6Q7WTKnxHUFM9s-21">
          <mxGeometry x="-0.4672" relative="1" as="geometry">
            <mxPoint x="20" y="-13" as="offset" />
          </mxGeometry>
        </mxCell>
        <mxCell id="-bzovc6Q7WTKnxHUFM9s-23" value="" style="endArrow=classic;html=1;rounded=0;entryX=0.25;entryY=0;entryDx=0;entryDy=0;" edge="1" parent="1" target="-bzovc6Q7WTKnxHUFM9s-18">
          <mxGeometry width="50" height="50" relative="1" as="geometry">
            <mxPoint x="350" y="40" as="sourcePoint" />
            <mxPoint x="420" y="70" as="targetPoint" />
          </mxGeometry>
        </mxCell>
        <mxCell id="-bzovc6Q7WTKnxHUFM9s-24" value="width" style="edgeLabel;html=1;align=center;verticalAlign=middle;resizable=0;points=[];" vertex="1" connectable="0" parent="-bzovc6Q7WTKnxHUFM9s-23">
          <mxGeometry x="-0.3827" y="-1" relative="1" as="geometry">
            <mxPoint x="-19" y="-12" as="offset" />
          </mxGeometry>
        </mxCell>
        <mxCell id="-bzovc6Q7WTKnxHUFM9s-25" value="" style="endArrow=classic;html=1;rounded=0;entryX=0.5;entryY=1;entryDx=0;entryDy=0;exitX=0;exitY=0.5;exitDx=0;exitDy=0;" edge="1" parent="1" source="-bzovc6Q7WTKnxHUFM9s-18" target="qTCJEdfnSMr6oc42xMNw-9">
          <mxGeometry width="50" height="50" relative="1" as="geometry">
            <mxPoint y="70" as="sourcePoint" />
            <mxPoint x="280" y="410" as="targetPoint" />
            <Array as="points">
              <mxPoint y="100" />
              <mxPoint y="590" />
            </Array>
          </mxGeometry>
        </mxCell>
        <mxCell id="-bzovc6Q7WTKnxHUFM9s-177" value="1" style="edgeLabel;html=1;align=center;verticalAlign=middle;resizable=0;points=[];" vertex="1" connectable="0" parent="-bzovc6Q7WTKnxHUFM9s-25">
          <mxGeometry x="0.8284" y="-1" relative="1" as="geometry">
            <mxPoint x="89" y="-1" as="offset" />
          </mxGeometry>
        </mxCell>
        <mxCell id="-bzovc6Q7WTKnxHUFM9s-26" value="" style="endArrow=classic;html=1;rounded=0;entryX=0;entryY=0.5;entryDx=0;entryDy=0;" edge="1" parent="1" target="qTCJEdfnSMr6oc42xMNw-9">
          <mxGeometry width="50" height="50" relative="1" as="geometry">
            <mxPoint x="140" y="470" as="sourcePoint" />
            <mxPoint x="460" y="570" as="targetPoint" />
          </mxGeometry>
        </mxCell>
        <mxCell id="-bzovc6Q7WTKnxHUFM9s-27" value="if R, I, U: 0&lt;div&gt;if i_l : 1&lt;/div&gt;" style="edgeLabel;html=1;align=center;verticalAlign=middle;resizable=0;points=[];" vertex="1" connectable="0" parent="-bzovc6Q7WTKnxHUFM9s-26">
          <mxGeometry x="-0.3238" relative="1" as="geometry">
            <mxPoint x="-30" y="-11" as="offset" />
          </mxGeometry>
        </mxCell>
        <mxCell id="-bzovc6Q7WTKnxHUFM9s-180" value="MX1S" style="edgeLabel;html=1;align=center;verticalAlign=middle;resizable=0;points=[];rotation=30;" vertex="1" connectable="0" parent="-bzovc6Q7WTKnxHUFM9s-26">
          <mxGeometry x="-0.1111" y="-1" relative="1" as="geometry">
            <mxPoint y="43" as="offset" />
          </mxGeometry>
        </mxCell>
        <mxCell id="-bzovc6Q7WTKnxHUFM9s-29" value="" style="endArrow=none;html=1;rounded=0;" edge="1" parent="1">
          <mxGeometry width="50" height="50" relative="1" as="geometry">
            <mxPoint x="346" y="58" as="sourcePoint" />
            <mxPoint x="355" y="49" as="targetPoint" />
          </mxGeometry>
        </mxCell>
        <mxCell id="-bzovc6Q7WTKnxHUFM9s-30" value="3" style="edgeLabel;html=1;align=center;verticalAlign=middle;resizable=0;points=[];" vertex="1" connectable="0" parent="-bzovc6Q7WTKnxHUFM9s-29">
          <mxGeometry x="0.436" relative="1" as="geometry">
            <mxPoint x="-12" y="2" as="offset" />
          </mxGeometry>
        </mxCell>
        <mxCell id="-bzovc6Q7WTKnxHUFM9s-31" value="" style="endArrow=none;html=1;rounded=0;" edge="1" parent="1">
          <mxGeometry width="50" height="50" relative="1" as="geometry">
            <mxPoint x="385" y="57" as="sourcePoint" />
            <mxPoint x="394" y="48" as="targetPoint" />
            <Array as="points">
              <mxPoint x="390" y="52" />
            </Array>
          </mxGeometry>
        </mxCell>
        <mxCell id="-bzovc6Q7WTKnxHUFM9s-32" value="1" style="edgeLabel;html=1;align=center;verticalAlign=middle;resizable=0;points=[];" vertex="1" connectable="0" parent="-bzovc6Q7WTKnxHUFM9s-31">
          <mxGeometry x="0.436" relative="1" as="geometry">
            <mxPoint x="-12" y="2" as="offset" />
          </mxGeometry>
        </mxCell>
        <mxCell id="-bzovc6Q7WTKnxHUFM9s-33" value="" style="endArrow=none;html=1;rounded=0;" edge="1" parent="1">
          <mxGeometry width="50" height="50" relative="1" as="geometry">
            <mxPoint x="471" y="104" as="sourcePoint" />
            <mxPoint x="465" y="96" as="targetPoint" />
            <Array as="points" />
          </mxGeometry>
        </mxCell>
        <mxCell id="-bzovc6Q7WTKnxHUFM9s-34" value="32" style="edgeLabel;html=1;align=center;verticalAlign=middle;resizable=0;points=[];" vertex="1" connectable="0" parent="-bzovc6Q7WTKnxHUFM9s-33">
          <mxGeometry x="0.436" relative="1" as="geometry">
            <mxPoint x="-2" y="-9" as="offset" />
          </mxGeometry>
        </mxCell>
        <mxCell id="-bzovc6Q7WTKnxHUFM9s-35" value="" style="endArrow=none;html=1;rounded=0;" edge="1" parent="1">
          <mxGeometry width="50" height="50" relative="1" as="geometry">
            <mxPoint x="1211" y="584" as="sourcePoint" />
            <mxPoint x="1205" y="576" as="targetPoint" />
            <Array as="points" />
          </mxGeometry>
        </mxCell>
        <mxCell id="-bzovc6Q7WTKnxHUFM9s-36" value="32" style="edgeLabel;html=1;align=center;verticalAlign=middle;resizable=0;points=[];" vertex="1" connectable="0" parent="-bzovc6Q7WTKnxHUFM9s-35">
          <mxGeometry x="0.436" relative="1" as="geometry">
            <mxPoint x="-2" y="-9" as="offset" />
          </mxGeometry>
        </mxCell>
        <mxCell id="-bzovc6Q7WTKnxHUFM9s-37" value="" style="endArrow=none;html=1;rounded=0;" edge="1" parent="1">
          <mxGeometry width="50" height="50" relative="1" as="geometry">
            <mxPoint x="814" y="179" as="sourcePoint" />
            <mxPoint x="808" y="171" as="targetPoint" />
            <Array as="points" />
          </mxGeometry>
        </mxCell>
        <mxCell id="-bzovc6Q7WTKnxHUFM9s-38" value="32" style="edgeLabel;html=1;align=center;verticalAlign=middle;resizable=0;points=[];" vertex="1" connectable="0" parent="-bzovc6Q7WTKnxHUFM9s-37">
          <mxGeometry x="0.436" relative="1" as="geometry">
            <mxPoint x="-2" y="-9" as="offset" />
          </mxGeometry>
        </mxCell>
        <mxCell id="-bzovc6Q7WTKnxHUFM9s-39" value="" style="endArrow=none;html=1;rounded=0;" edge="1" parent="1">
          <mxGeometry width="50" height="50" relative="1" as="geometry">
            <mxPoint x="810" y="250" as="sourcePoint" />
            <mxPoint x="804" y="242" as="targetPoint" />
            <Array as="points" />
          </mxGeometry>
        </mxCell>
        <mxCell id="-bzovc6Q7WTKnxHUFM9s-40" value="32" style="edgeLabel;html=1;align=center;verticalAlign=middle;resizable=0;points=[];" vertex="1" connectable="0" parent="-bzovc6Q7WTKnxHUFM9s-39">
          <mxGeometry x="0.436" relative="1" as="geometry">
            <mxPoint x="-2" y="-9" as="offset" />
          </mxGeometry>
        </mxCell>
        <mxCell id="-bzovc6Q7WTKnxHUFM9s-41" value="" style="endArrow=none;html=1;rounded=0;" edge="1" parent="1">
          <mxGeometry width="50" height="50" relative="1" as="geometry">
            <mxPoint x="1093" y="343" as="sourcePoint" />
            <mxPoint x="1087" y="335" as="targetPoint" />
            <Array as="points" />
          </mxGeometry>
        </mxCell>
        <mxCell id="-bzovc6Q7WTKnxHUFM9s-42" value="32" style="edgeLabel;html=1;align=center;verticalAlign=middle;resizable=0;points=[];" vertex="1" connectable="0" parent="-bzovc6Q7WTKnxHUFM9s-41">
          <mxGeometry x="0.436" relative="1" as="geometry">
            <mxPoint x="12" y="2" as="offset" />
          </mxGeometry>
        </mxCell>
        <mxCell id="-bzovc6Q7WTKnxHUFM9s-43" value="" style="endArrow=none;html=1;rounded=0;" edge="1" parent="1">
          <mxGeometry width="50" height="50" relative="1" as="geometry">
            <mxPoint x="1023" y="398" as="sourcePoint" />
            <mxPoint x="1017" y="390" as="targetPoint" />
            <Array as="points" />
          </mxGeometry>
        </mxCell>
        <mxCell id="-bzovc6Q7WTKnxHUFM9s-44" value="32" style="edgeLabel;html=1;align=center;verticalAlign=middle;resizable=0;points=[];" vertex="1" connectable="0" parent="-bzovc6Q7WTKnxHUFM9s-43">
          <mxGeometry x="0.436" relative="1" as="geometry">
            <mxPoint x="13" y="2" as="offset" />
          </mxGeometry>
        </mxCell>
        <mxCell id="-bzovc6Q7WTKnxHUFM9s-45" value="" style="endArrow=none;html=1;rounded=0;" edge="1" parent="1">
          <mxGeometry width="50" height="50" relative="1" as="geometry">
            <mxPoint x="555" y="484" as="sourcePoint" />
            <mxPoint x="549" y="476" as="targetPoint" />
            <Array as="points" />
          </mxGeometry>
        </mxCell>
        <mxCell id="-bzovc6Q7WTKnxHUFM9s-46" value="32" style="edgeLabel;html=1;align=center;verticalAlign=middle;resizable=0;points=[];" vertex="1" connectable="0" parent="-bzovc6Q7WTKnxHUFM9s-45">
          <mxGeometry x="0.436" relative="1" as="geometry">
            <mxPoint x="-2" y="-9" as="offset" />
          </mxGeometry>
        </mxCell>
        <mxCell id="-bzovc6Q7WTKnxHUFM9s-47" value="" style="endArrow=none;html=1;rounded=0;" edge="1" parent="1">
          <mxGeometry width="50" height="50" relative="1" as="geometry">
            <mxPoint x="556" y="514" as="sourcePoint" />
            <mxPoint x="550" y="506" as="targetPoint" />
            <Array as="points" />
          </mxGeometry>
        </mxCell>
        <mxCell id="-bzovc6Q7WTKnxHUFM9s-48" value="32" style="edgeLabel;html=1;align=center;verticalAlign=middle;resizable=0;points=[];" vertex="1" connectable="0" parent="-bzovc6Q7WTKnxHUFM9s-47">
          <mxGeometry x="0.436" relative="1" as="geometry">
            <mxPoint x="-2" y="-9" as="offset" />
          </mxGeometry>
        </mxCell>
        <mxCell id="-bzovc6Q7WTKnxHUFM9s-49" value="" style="endArrow=none;html=1;rounded=0;" edge="1" parent="1">
          <mxGeometry width="50" height="50" relative="1" as="geometry">
            <mxPoint x="576" y="635" as="sourcePoint" />
            <mxPoint x="570" y="627" as="targetPoint" />
            <Array as="points" />
          </mxGeometry>
        </mxCell>
        <mxCell id="-bzovc6Q7WTKnxHUFM9s-50" value="32" style="edgeLabel;html=1;align=center;verticalAlign=middle;resizable=0;points=[];" vertex="1" connectable="0" parent="-bzovc6Q7WTKnxHUFM9s-49">
          <mxGeometry x="0.436" relative="1" as="geometry">
            <mxPoint x="-2" y="-9" as="offset" />
          </mxGeometry>
        </mxCell>
        <mxCell id="-bzovc6Q7WTKnxHUFM9s-51" value="" style="endArrow=none;html=1;rounded=0;" edge="1" parent="1">
          <mxGeometry width="50" height="50" relative="1" as="geometry">
            <mxPoint x="576" y="664" as="sourcePoint" />
            <mxPoint x="570" y="656" as="targetPoint" />
            <Array as="points" />
          </mxGeometry>
        </mxCell>
        <mxCell id="-bzovc6Q7WTKnxHUFM9s-52" value="32" style="edgeLabel;html=1;align=center;verticalAlign=middle;resizable=0;points=[];" vertex="1" connectable="0" parent="-bzovc6Q7WTKnxHUFM9s-51">
          <mxGeometry x="0.436" relative="1" as="geometry">
            <mxPoint x="-2" y="-9" as="offset" />
          </mxGeometry>
        </mxCell>
        <mxCell id="-bzovc6Q7WTKnxHUFM9s-53" value="" style="endArrow=none;html=1;rounded=0;" edge="1" parent="1">
          <mxGeometry width="50" height="50" relative="1" as="geometry">
            <mxPoint x="578" y="693" as="sourcePoint" />
            <mxPoint x="572" y="685" as="targetPoint" />
            <Array as="points" />
          </mxGeometry>
        </mxCell>
        <mxCell id="-bzovc6Q7WTKnxHUFM9s-54" value="32" style="edgeLabel;html=1;align=center;verticalAlign=middle;resizable=0;points=[];" vertex="1" connectable="0" parent="-bzovc6Q7WTKnxHUFM9s-53">
          <mxGeometry x="0.436" relative="1" as="geometry">
            <mxPoint x="-2" y="-9" as="offset" />
          </mxGeometry>
        </mxCell>
        <mxCell id="-bzovc6Q7WTKnxHUFM9s-55" value="" style="endArrow=none;html=1;rounded=0;" edge="1" parent="1">
          <mxGeometry width="50" height="50" relative="1" as="geometry">
            <mxPoint x="86" y="594" as="sourcePoint" />
            <mxPoint x="80" y="586" as="targetPoint" />
            <Array as="points" />
          </mxGeometry>
        </mxCell>
        <mxCell id="-bzovc6Q7WTKnxHUFM9s-56" value="32" style="edgeLabel;html=1;align=center;verticalAlign=middle;resizable=0;points=[];" vertex="1" connectable="0" parent="-bzovc6Q7WTKnxHUFM9s-55">
          <mxGeometry x="0.436" relative="1" as="geometry">
            <mxPoint x="-2" y="-9" as="offset" />
          </mxGeometry>
        </mxCell>
        <mxCell id="-bzovc6Q7WTKnxHUFM9s-57" value="" style="endArrow=none;html=1;rounded=0;" edge="1" parent="1">
          <mxGeometry width="50" height="50" relative="1" as="geometry">
            <mxPoint x="83" y="560" as="sourcePoint" />
            <mxPoint x="77" y="552" as="targetPoint" />
            <Array as="points" />
          </mxGeometry>
        </mxCell>
        <mxCell id="-bzovc6Q7WTKnxHUFM9s-58" value="32" style="edgeLabel;html=1;align=center;verticalAlign=middle;resizable=0;points=[];" vertex="1" connectable="0" parent="-bzovc6Q7WTKnxHUFM9s-57">
          <mxGeometry x="0.436" relative="1" as="geometry">
            <mxPoint x="-2" y="-9" as="offset" />
          </mxGeometry>
        </mxCell>
        <mxCell id="-bzovc6Q7WTKnxHUFM9s-60" value="" style="endArrow=none;html=1;rounded=0;" edge="1" parent="1">
          <mxGeometry width="50" height="50" relative="1" as="geometry">
            <mxPoint x="440" y="630" as="sourcePoint" />
            <mxPoint x="440" y="880.4761904761905" as="targetPoint" />
          </mxGeometry>
        </mxCell>
        <mxCell id="-bzovc6Q7WTKnxHUFM9s-61" value="" style="endArrow=none;html=1;rounded=0;" edge="1" parent="1">
          <mxGeometry width="50" height="50" relative="1" as="geometry">
            <mxPoint x="440" y="880" as="sourcePoint" />
            <mxPoint x="500" y="880" as="targetPoint" />
          </mxGeometry>
        </mxCell>
        <mxCell id="-bzovc6Q7WTKnxHUFM9s-62" value="" style="endArrow=none;html=1;rounded=0;curved=1;" edge="1" parent="1">
          <mxGeometry width="50" height="50" relative="1" as="geometry">
            <mxPoint x="500" y="880" as="sourcePoint" />
            <mxPoint x="540" y="880" as="targetPoint" />
            <Array as="points">
              <mxPoint x="520" y="850" />
            </Array>
          </mxGeometry>
        </mxCell>
        <mxCell id="-bzovc6Q7WTKnxHUFM9s-63" value="" style="endArrow=none;html=1;rounded=0;endFill=0;" edge="1" parent="1">
          <mxGeometry width="50" height="50" relative="1" as="geometry">
            <mxPoint x="540" y="880" as="sourcePoint" />
            <mxPoint x="1070" y="640" as="targetPoint" />
            <Array as="points">
              <mxPoint x="1040" y="880" />
              <mxPoint x="1040" y="640" />
            </Array>
          </mxGeometry>
        </mxCell>
        <mxCell id="-bzovc6Q7WTKnxHUFM9s-64" value="" style="endArrow=none;html=1;rounded=0;curved=1;" edge="1" parent="1">
          <mxGeometry width="50" height="50" relative="1" as="geometry">
            <mxPoint x="1110" y="640" as="sourcePoint" />
            <mxPoint x="1070" y="640" as="targetPoint" />
            <Array as="points">
              <mxPoint x="1090" y="610" />
            </Array>
          </mxGeometry>
        </mxCell>
        <mxCell id="-bzovc6Q7WTKnxHUFM9s-65" value="" style="endArrow=classic;html=1;rounded=0;" edge="1" parent="1">
          <mxGeometry width="50" height="50" relative="1" as="geometry">
            <mxPoint x="1110" y="640" as="sourcePoint" />
            <mxPoint x="1280" y="640" as="targetPoint" />
          </mxGeometry>
        </mxCell>
        <mxCell id="-bzovc6Q7WTKnxHUFM9s-68" value="DOUT" style="edgeLabel;html=1;align=center;verticalAlign=middle;resizable=0;points=[];" vertex="1" connectable="0" parent="-bzovc6Q7WTKnxHUFM9s-65">
          <mxGeometry x="-0.2263" relative="1" as="geometry">
            <mxPoint x="74" y="20" as="offset" />
          </mxGeometry>
        </mxCell>
        <mxCell id="-bzovc6Q7WTKnxHUFM9s-66" value="" style="endArrow=none;html=1;rounded=0;" edge="1" parent="1">
          <mxGeometry width="50" height="50" relative="1" as="geometry">
            <mxPoint x="1212" y="644" as="sourcePoint" />
            <mxPoint x="1206" y="636" as="targetPoint" />
            <Array as="points" />
          </mxGeometry>
        </mxCell>
        <mxCell id="-bzovc6Q7WTKnxHUFM9s-67" value="32" style="edgeLabel;html=1;align=center;verticalAlign=middle;resizable=0;points=[];" vertex="1" connectable="0" parent="-bzovc6Q7WTKnxHUFM9s-66">
          <mxGeometry x="0.436" relative="1" as="geometry">
            <mxPoint x="-2" y="-9" as="offset" />
          </mxGeometry>
        </mxCell>
        <mxCell id="-bzovc6Q7WTKnxHUFM9s-69" value="" style="endArrow=classic;html=1;rounded=0;entryX=0.75;entryY=1;entryDx=0;entryDy=0;" edge="1" parent="1" target="-bzovc6Q7WTKnxHUFM9s-113">
          <mxGeometry width="50" height="50" relative="1" as="geometry">
            <mxPoint x="1060" y="175" as="sourcePoint" />
            <mxPoint x="1220" y="995" as="targetPoint" />
            <Array as="points">
              <mxPoint x="1360" y="175" />
              <mxPoint x="1360" y="1080" />
              <mxPoint x="1360" y="1240" />
              <mxPoint x="1170" y="1240" />
            </Array>
          </mxGeometry>
        </mxCell>
        <mxCell id="-bzovc6Q7WTKnxHUFM9s-161" value="00" style="edgeLabel;html=1;align=center;verticalAlign=middle;resizable=0;points=[];" vertex="1" connectable="0" parent="-bzovc6Q7WTKnxHUFM9s-69">
          <mxGeometry x="0.9142" y="1" relative="1" as="geometry">
            <mxPoint x="1" y="-81" as="offset" />
          </mxGeometry>
        </mxCell>
        <mxCell id="-bzovc6Q7WTKnxHUFM9s-70" value="" style="endArrow=none;html=1;rounded=0;" edge="1" parent="1">
          <mxGeometry width="50" height="50" relative="1" as="geometry">
            <mxPoint x="1173" y="1183" as="sourcePoint" />
            <mxPoint x="1167" y="1175" as="targetPoint" />
            <Array as="points" />
          </mxGeometry>
        </mxCell>
        <mxCell id="-bzovc6Q7WTKnxHUFM9s-71" value="32" style="edgeLabel;html=1;align=center;verticalAlign=middle;resizable=0;points=[];" vertex="1" connectable="0" parent="-bzovc6Q7WTKnxHUFM9s-70">
          <mxGeometry x="0.436" relative="1" as="geometry">
            <mxPoint x="12" y="1" as="offset" />
          </mxGeometry>
        </mxCell>
        <mxCell id="-bzovc6Q7WTKnxHUFM9s-73" value="" style="endArrow=classic;html=1;rounded=0;entryX=0.5;entryY=1;entryDx=0;entryDy=0;" edge="1" parent="1">
          <mxGeometry width="50" height="50" relative="1" as="geometry">
            <mxPoint x="986.29" y="1190" as="sourcePoint" />
            <mxPoint x="986" y="1130" as="targetPoint" />
          </mxGeometry>
        </mxCell>
        <mxCell id="-bzovc6Q7WTKnxHUFM9s-75" value="&lt;span style=&quot;background-color: rgb(255, 255, 51);&quot;&gt;Branch&lt;/span&gt;" style="edgeLabel;html=1;align=center;verticalAlign=middle;resizable=0;points=[];" vertex="1" connectable="0" parent="-bzovc6Q7WTKnxHUFM9s-73">
          <mxGeometry x="-0.15" y="-1" relative="1" as="geometry">
            <mxPoint x="-1" y="31" as="offset" />
          </mxGeometry>
        </mxCell>
        <mxCell id="-bzovc6Q7WTKnxHUFM9s-169" value="01" style="edgeLabel;html=1;align=center;verticalAlign=middle;resizable=0;points=[];" vertex="1" connectable="0" parent="-bzovc6Q7WTKnxHUFM9s-73">
          <mxGeometry x="-0.2857" relative="1" as="geometry">
            <mxPoint y="-47" as="offset" />
          </mxGeometry>
        </mxCell>
        <mxCell id="-bzovc6Q7WTKnxHUFM9s-76" value="" style="endArrow=none;html=1;rounded=0;" edge="1" parent="1">
          <mxGeometry width="50" height="50" relative="1" as="geometry">
            <mxPoint x="989" y="1158" as="sourcePoint" />
            <mxPoint x="983" y="1150" as="targetPoint" />
            <Array as="points" />
          </mxGeometry>
        </mxCell>
        <mxCell id="-bzovc6Q7WTKnxHUFM9s-77" value="1" style="edgeLabel;html=1;align=center;verticalAlign=middle;resizable=0;points=[];" vertex="1" connectable="0" parent="-bzovc6Q7WTKnxHUFM9s-76">
          <mxGeometry x="0.436" relative="1" as="geometry">
            <mxPoint x="13" y="2" as="offset" />
          </mxGeometry>
        </mxCell>
        <mxCell id="-bzovc6Q7WTKnxHUFM9s-78" value="Branch Decoder" style="rounded=1;whiteSpace=wrap;html=1;" vertex="1" parent="1">
          <mxGeometry x="400" y="240" width="120" height="80" as="geometry" />
        </mxCell>
        <mxCell id="-bzovc6Q7WTKnxHUFM9s-79" value="" style="endArrow=classic;html=1;rounded=0;entryX=1;entryY=0.5;entryDx=0;entryDy=0;" edge="1" parent="1" target="-bzovc6Q7WTKnxHUFM9s-78">
          <mxGeometry width="50" height="50" relative="1" as="geometry">
            <mxPoint x="860" y="320" as="sourcePoint" />
            <mxPoint x="600" y="340" as="targetPoint" />
            <Array as="points">
              <mxPoint x="640" y="320" />
              <mxPoint x="640" y="280" />
            </Array>
          </mxGeometry>
        </mxCell>
        <mxCell id="-bzovc6Q7WTKnxHUFM9s-80" value="" style="endArrow=classic;html=1;rounded=0;exitX=0.5;exitY=0;exitDx=0;exitDy=0;entryX=0.667;entryY=1;entryDx=0;entryDy=0;entryPerimeter=0;" edge="1" parent="1" source="qTCJEdfnSMr6oc42xMNw-2" target="-bzovc6Q7WTKnxHUFM9s-78">
          <mxGeometry width="50" height="50" relative="1" as="geometry">
            <mxPoint x="550" y="390" as="sourcePoint" />
            <mxPoint x="480" y="330" as="targetPoint" />
            <Array as="points">
              <mxPoint x="740" y="360" />
              <mxPoint x="480" y="360" />
            </Array>
          </mxGeometry>
        </mxCell>
        <mxCell id="-bzovc6Q7WTKnxHUFM9s-81" value="flags" style="edgeLabel;html=1;align=center;verticalAlign=middle;resizable=0;points=[];" vertex="1" connectable="0" parent="-bzovc6Q7WTKnxHUFM9s-80">
          <mxGeometry x="0.1471" y="-1" relative="1" as="geometry">
            <mxPoint x="-65" y="-9" as="offset" />
          </mxGeometry>
        </mxCell>
        <mxCell id="-bzovc6Q7WTKnxHUFM9s-84" value="" style="endArrow=none;html=1;rounded=0;" edge="1" parent="1">
          <mxGeometry width="50" height="50" relative="1" as="geometry">
            <mxPoint x="483" y="348" as="sourcePoint" />
            <mxPoint x="477" y="340" as="targetPoint" />
            <Array as="points" />
          </mxGeometry>
        </mxCell>
        <mxCell id="-bzovc6Q7WTKnxHUFM9s-85" value="2" style="edgeLabel;html=1;align=center;verticalAlign=middle;resizable=0;points=[];" vertex="1" connectable="0" parent="-bzovc6Q7WTKnxHUFM9s-84">
          <mxGeometry x="0.436" relative="1" as="geometry">
            <mxPoint x="10" y="2" as="offset" />
          </mxGeometry>
        </mxCell>
        <mxCell id="-bzovc6Q7WTKnxHUFM9s-86" value="" style="endArrow=classic;html=1;rounded=0;entryX=0.25;entryY=1;entryDx=0;entryDy=0;" edge="1" parent="1" target="-bzovc6Q7WTKnxHUFM9s-78">
          <mxGeometry width="50" height="50" relative="1" as="geometry">
            <mxPoint x="430" y="400" as="sourcePoint" />
            <mxPoint x="640" y="470" as="targetPoint" />
          </mxGeometry>
        </mxCell>
        <mxCell id="-bzovc6Q7WTKnxHUFM9s-87" value="Branch_type" style="edgeLabel;html=1;align=center;verticalAlign=middle;resizable=0;points=[];" vertex="1" connectable="0" parent="-bzovc6Q7WTKnxHUFM9s-86">
          <mxGeometry x="-0.065" relative="1" as="geometry">
            <mxPoint x="40" y="28" as="offset" />
          </mxGeometry>
        </mxCell>
        <mxCell id="-bzovc6Q7WTKnxHUFM9s-88" value="" style="endArrow=none;html=1;rounded=0;" edge="1" parent="1">
          <mxGeometry width="50" height="50" relative="1" as="geometry">
            <mxPoint x="433" y="349" as="sourcePoint" />
            <mxPoint x="427" y="341" as="targetPoint" />
            <Array as="points" />
          </mxGeometry>
        </mxCell>
        <mxCell id="-bzovc6Q7WTKnxHUFM9s-89" value="3" style="edgeLabel;html=1;align=center;verticalAlign=middle;resizable=0;points=[];" vertex="1" connectable="0" parent="-bzovc6Q7WTKnxHUFM9s-88">
          <mxGeometry x="0.436" relative="1" as="geometry">
            <mxPoint x="10" y="2" as="offset" />
          </mxGeometry>
        </mxCell>
        <mxCell id="-bzovc6Q7WTKnxHUFM9s-90" value="" style="endArrow=classic;html=1;rounded=0;exitX=0;exitY=0.5;exitDx=0;exitDy=0;" edge="1" parent="1" source="-bzovc6Q7WTKnxHUFM9s-78">
          <mxGeometry width="50" height="50" relative="1" as="geometry">
            <mxPoint x="440" y="320" as="sourcePoint" />
            <mxPoint x="320" y="280" as="targetPoint" />
          </mxGeometry>
        </mxCell>
        <mxCell id="-bzovc6Q7WTKnxHUFM9s-91" value="&lt;span style=&quot;background-color: rgb(255, 255, 102);&quot;&gt;Branch&lt;/span&gt;" style="edgeLabel;html=1;align=center;verticalAlign=middle;resizable=0;points=[];" vertex="1" connectable="0" parent="-bzovc6Q7WTKnxHUFM9s-90">
          <mxGeometry x="-0.0056" y="1" relative="1" as="geometry">
            <mxPoint x="-40" y="-21" as="offset" />
          </mxGeometry>
        </mxCell>
        <mxCell id="-bzovc6Q7WTKnxHUFM9s-95" value="" style="endArrow=none;html=1;rounded=0;" edge="1" parent="1">
          <mxGeometry width="50" height="50" relative="1" as="geometry">
            <mxPoint x="273" y="798" as="sourcePoint" />
            <mxPoint x="267" y="790" as="targetPoint" />
            <Array as="points" />
          </mxGeometry>
        </mxCell>
        <mxCell id="-bzovc6Q7WTKnxHUFM9s-96" value="5" style="edgeLabel;html=1;align=center;verticalAlign=middle;resizable=0;points=[];" vertex="1" connectable="0" parent="-bzovc6Q7WTKnxHUFM9s-95">
          <mxGeometry x="0.436" relative="1" as="geometry">
            <mxPoint x="10" y="2" as="offset" />
          </mxGeometry>
        </mxCell>
        <mxCell id="-bzovc6Q7WTKnxHUFM9s-97" value="" style="endArrow=none;html=1;rounded=0;" edge="1" parent="1">
          <mxGeometry width="50" height="50" relative="1" as="geometry">
            <mxPoint x="314" y="799" as="sourcePoint" />
            <mxPoint x="308" y="791" as="targetPoint" />
            <Array as="points" />
          </mxGeometry>
        </mxCell>
        <mxCell id="-bzovc6Q7WTKnxHUFM9s-98" value="5" style="edgeLabel;html=1;align=center;verticalAlign=middle;resizable=0;points=[];" vertex="1" connectable="0" parent="-bzovc6Q7WTKnxHUFM9s-97">
          <mxGeometry x="0.436" relative="1" as="geometry">
            <mxPoint x="10" y="2" as="offset" />
          </mxGeometry>
        </mxCell>
        <mxCell id="-bzovc6Q7WTKnxHUFM9s-99" value="" style="endArrow=none;html=1;rounded=0;" edge="1" parent="1">
          <mxGeometry width="50" height="50" relative="1" as="geometry">
            <mxPoint x="343" y="800" as="sourcePoint" />
            <mxPoint x="337" y="792" as="targetPoint" />
            <Array as="points" />
          </mxGeometry>
        </mxCell>
        <mxCell id="-bzovc6Q7WTKnxHUFM9s-100" value="5" style="edgeLabel;html=1;align=center;verticalAlign=middle;resizable=0;points=[];" vertex="1" connectable="0" parent="-bzovc6Q7WTKnxHUFM9s-99">
          <mxGeometry x="0.436" relative="1" as="geometry">
            <mxPoint x="10" y="2" as="offset" />
          </mxGeometry>
        </mxCell>
        <mxCell id="-bzovc6Q7WTKnxHUFM9s-101" value="" style="endArrow=classic;html=1;rounded=0;entryX=0.338;entryY=1;entryDx=0;entryDy=0;entryPerimeter=0;" edge="1" parent="1">
          <mxGeometry width="50" height="50" relative="1" as="geometry">
            <mxPoint x="230" y="840" as="sourcePoint" />
            <mxPoint x="230" y="760" as="targetPoint" />
          </mxGeometry>
        </mxCell>
        <mxCell id="-bzovc6Q7WTKnxHUFM9s-102" value="load" style="edgeLabel;html=1;align=center;verticalAlign=middle;resizable=0;points=[];" vertex="1" connectable="0" parent="-bzovc6Q7WTKnxHUFM9s-101">
          <mxGeometry x="0.0069" y="-1" relative="1" as="geometry">
            <mxPoint x="1" y="-50" as="offset" />
          </mxGeometry>
        </mxCell>
        <mxCell id="-bzovc6Q7WTKnxHUFM9s-103" value="rfld" style="edgeLabel;html=1;align=center;verticalAlign=middle;resizable=0;points=[];" vertex="1" connectable="0" parent="-bzovc6Q7WTKnxHUFM9s-101">
          <mxGeometry x="-0.3768" y="1" relative="1" as="geometry">
            <mxPoint x="-10" y="23" as="offset" />
          </mxGeometry>
        </mxCell>
        <mxCell id="-bzovc6Q7WTKnxHUFM9s-110" value="Adder" style="rounded=0;whiteSpace=wrap;html=1;" vertex="1" parent="1">
          <mxGeometry x="680" y="1030" width="120" height="60" as="geometry" />
        </mxCell>
        <mxCell id="-bzovc6Q7WTKnxHUFM9s-111" value="" style="endArrow=classic;html=1;rounded=0;entryX=0.25;entryY=0;entryDx=0;entryDy=0;" edge="1" parent="1" target="-bzovc6Q7WTKnxHUFM9s-110">
          <mxGeometry width="50" height="50" relative="1" as="geometry">
            <mxPoint x="520" y="980" as="sourcePoint" />
            <mxPoint x="660" y="1140" as="targetPoint" />
            <Array as="points">
              <mxPoint x="710" y="980" />
            </Array>
          </mxGeometry>
        </mxCell>
        <mxCell id="-bzovc6Q7WTKnxHUFM9s-188" value="in a" style="edgeLabel;html=1;align=center;verticalAlign=middle;resizable=0;points=[];" vertex="1" connectable="0" parent="-bzovc6Q7WTKnxHUFM9s-111">
          <mxGeometry x="0.3859" y="1" relative="1" as="geometry">
            <mxPoint x="24" y="61" as="offset" />
          </mxGeometry>
        </mxCell>
        <mxCell id="-bzovc6Q7WTKnxHUFM9s-112" value="" style="endArrow=classic;html=1;rounded=0;entryX=0.75;entryY=0;entryDx=0;entryDy=0;" edge="1" parent="1" target="-bzovc6Q7WTKnxHUFM9s-110">
          <mxGeometry width="50" height="50" relative="1" as="geometry">
            <mxPoint x="1090" y="920" as="sourcePoint" />
            <mxPoint x="800" y="1100" as="targetPoint" />
            <Array as="points">
              <mxPoint x="920" y="920" />
              <mxPoint x="920" y="980" />
              <mxPoint x="770" y="980" />
            </Array>
          </mxGeometry>
        </mxCell>
        <mxCell id="-bzovc6Q7WTKnxHUFM9s-189" value="in b" style="edgeLabel;html=1;align=center;verticalAlign=middle;resizable=0;points=[];" vertex="1" connectable="0" parent="-bzovc6Q7WTKnxHUFM9s-112">
          <mxGeometry x="0.5817" y="-1" relative="1" as="geometry">
            <mxPoint x="-40" y="61" as="offset" />
          </mxGeometry>
        </mxCell>
        <mxCell id="-bzovc6Q7WTKnxHUFM9s-114" value="" style="endArrow=classic;html=1;rounded=0;exitX=0.5;exitY=1;exitDx=0;exitDy=0;entryX=0.5;entryY=1;entryDx=0;entryDy=0;" edge="1" parent="1" source="-bzovc6Q7WTKnxHUFM9s-110" target="-bzovc6Q7WTKnxHUFM9s-113">
          <mxGeometry width="50" height="50" relative="1" as="geometry">
            <mxPoint x="1020" y="1110" as="sourcePoint" />
            <mxPoint x="1070" y="1060" as="targetPoint" />
            <Array as="points">
              <mxPoint x="740" y="1330" />
              <mxPoint x="1140" y="1330" />
            </Array>
          </mxGeometry>
        </mxCell>
        <mxCell id="-bzovc6Q7WTKnxHUFM9s-162" value="01" style="edgeLabel;html=1;align=center;verticalAlign=middle;resizable=0;points=[];" vertex="1" connectable="0" parent="-bzovc6Q7WTKnxHUFM9s-114">
          <mxGeometry x="0.8118" y="-1" relative="1" as="geometry">
            <mxPoint x="-1" y="-88" as="offset" />
          </mxGeometry>
        </mxCell>
        <mxCell id="-bzovc6Q7WTKnxHUFM9s-191" value="out" style="edgeLabel;html=1;align=center;verticalAlign=middle;resizable=0;points=[];" vertex="1" connectable="0" parent="-bzovc6Q7WTKnxHUFM9s-114">
          <mxGeometry x="-0.8987" y="2" relative="1" as="geometry">
            <mxPoint x="-3" y="-51" as="offset" />
          </mxGeometry>
        </mxCell>
        <mxCell id="-bzovc6Q7WTKnxHUFM9s-115" value="" style="endArrow=classic;html=1;rounded=0;exitX=0.5;exitY=0;exitDx=0;exitDy=0;entryX=0.75;entryY=1;entryDx=0;entryDy=0;" edge="1" parent="1" source="-bzovc6Q7WTKnxHUFM9s-113" target="qTCJEdfnSMr6oc42xMNw-3">
          <mxGeometry width="50" height="50" relative="1" as="geometry">
            <mxPoint x="1120" y="1140" as="sourcePoint" />
            <mxPoint x="1170" y="1090" as="targetPoint" />
            <Array as="points">
              <mxPoint x="1140" y="1080" />
              <mxPoint x="1130" y="1080" />
            </Array>
          </mxGeometry>
        </mxCell>
        <mxCell id="-bzovc6Q7WTKnxHUFM9s-122" value="in" style="edgeLabel;html=1;align=center;verticalAlign=middle;resizable=0;points=[];" vertex="1" connectable="0" parent="-bzovc6Q7WTKnxHUFM9s-115">
          <mxGeometry x="0.0952" relative="1" as="geometry">
            <mxPoint y="-42" as="offset" />
          </mxGeometry>
        </mxCell>
        <mxCell id="-bzovc6Q7WTKnxHUFM9s-116" value="" style="endArrow=none;html=1;rounded=0;" edge="1" parent="1">
          <mxGeometry width="50" height="50" relative="1" as="geometry">
            <mxPoint x="1143" y="1184" as="sourcePoint" />
            <mxPoint x="1137" y="1176" as="targetPoint" />
            <Array as="points" />
          </mxGeometry>
        </mxCell>
        <mxCell id="-bzovc6Q7WTKnxHUFM9s-117" value="32" style="edgeLabel;html=1;align=center;verticalAlign=middle;resizable=0;points=[];" vertex="1" connectable="0" parent="-bzovc6Q7WTKnxHUFM9s-116">
          <mxGeometry x="0.436" relative="1" as="geometry">
            <mxPoint x="12" y="1" as="offset" />
          </mxGeometry>
        </mxCell>
        <mxCell id="-bzovc6Q7WTKnxHUFM9s-118" value="" style="endArrow=none;html=1;rounded=0;" edge="1" parent="1">
          <mxGeometry width="50" height="50" relative="1" as="geometry">
            <mxPoint x="713" y="1006" as="sourcePoint" />
            <mxPoint x="707" y="998" as="targetPoint" />
            <Array as="points" />
          </mxGeometry>
        </mxCell>
        <mxCell id="-bzovc6Q7WTKnxHUFM9s-119" value="32" style="edgeLabel;html=1;align=center;verticalAlign=middle;resizable=0;points=[];" vertex="1" connectable="0" parent="-bzovc6Q7WTKnxHUFM9s-118">
          <mxGeometry x="0.436" relative="1" as="geometry">
            <mxPoint x="12" y="1" as="offset" />
          </mxGeometry>
        </mxCell>
        <mxCell id="-bzovc6Q7WTKnxHUFM9s-120" value="" style="endArrow=none;html=1;rounded=0;" edge="1" parent="1">
          <mxGeometry width="50" height="50" relative="1" as="geometry">
            <mxPoint x="773" y="1007" as="sourcePoint" />
            <mxPoint x="767" y="999" as="targetPoint" />
            <Array as="points" />
          </mxGeometry>
        </mxCell>
        <mxCell id="-bzovc6Q7WTKnxHUFM9s-121" value="32" style="edgeLabel;html=1;align=center;verticalAlign=middle;resizable=0;points=[];" vertex="1" connectable="0" parent="-bzovc6Q7WTKnxHUFM9s-120">
          <mxGeometry x="0.436" relative="1" as="geometry">
            <mxPoint x="12" y="1" as="offset" />
          </mxGeometry>
        </mxCell>
        <mxCell id="-bzovc6Q7WTKnxHUFM9s-123" value="" style="endArrow=none;html=1;rounded=0;" edge="1" parent="1">
          <mxGeometry width="50" height="50" relative="1" as="geometry">
            <mxPoint x="1133" y="1067" as="sourcePoint" />
            <mxPoint x="1127" y="1059" as="targetPoint" />
            <Array as="points" />
          </mxGeometry>
        </mxCell>
        <mxCell id="-bzovc6Q7WTKnxHUFM9s-124" value="32" style="edgeLabel;html=1;align=center;verticalAlign=middle;resizable=0;points=[];" vertex="1" connectable="0" parent="-bzovc6Q7WTKnxHUFM9s-123">
          <mxGeometry x="0.436" relative="1" as="geometry">
            <mxPoint x="13" y="2" as="offset" />
          </mxGeometry>
        </mxCell>
        <mxCell id="-bzovc6Q7WTKnxHUFM9s-126" value="" style="endArrow=classic;html=1;rounded=0;entryX=0.75;entryY=1;entryDx=0;entryDy=0;" edge="1" parent="1" target="-bzovc6Q7WTKnxHUFM9s-125">
          <mxGeometry width="50" height="50" relative="1" as="geometry">
            <mxPoint x="1060" y="440" as="sourcePoint" />
            <mxPoint x="1000" y="370" as="targetPoint" />
          </mxGeometry>
        </mxCell>
        <mxCell id="-bzovc6Q7WTKnxHUFM9s-129" value="32&#39;h4" style="edgeLabel;html=1;align=center;verticalAlign=middle;resizable=0;points=[];" vertex="1" connectable="0" parent="-bzovc6Q7WTKnxHUFM9s-126">
          <mxGeometry x="-0.3632" relative="1" as="geometry">
            <mxPoint y="39" as="offset" />
          </mxGeometry>
        </mxCell>
        <mxCell id="-bzovc6Q7WTKnxHUFM9s-158" value="1" style="edgeLabel;html=1;align=center;verticalAlign=middle;resizable=0;points=[];" vertex="1" connectable="0" parent="-bzovc6Q7WTKnxHUFM9s-126">
          <mxGeometry x="0.3714" y="1" relative="1" as="geometry">
            <mxPoint y="-38" as="offset" />
          </mxGeometry>
        </mxCell>
        <mxCell id="-bzovc6Q7WTKnxHUFM9s-127" value="" style="endArrow=none;html=1;rounded=0;" edge="1" parent="1">
          <mxGeometry width="50" height="50" relative="1" as="geometry">
            <mxPoint x="1063" y="398" as="sourcePoint" />
            <mxPoint x="1057" y="390" as="targetPoint" />
            <Array as="points" />
          </mxGeometry>
        </mxCell>
        <mxCell id="-bzovc6Q7WTKnxHUFM9s-128" value="32" style="edgeLabel;html=1;align=center;verticalAlign=middle;resizable=0;points=[];" vertex="1" connectable="0" parent="-bzovc6Q7WTKnxHUFM9s-127">
          <mxGeometry x="0.436" relative="1" as="geometry">
            <mxPoint x="13" y="2" as="offset" />
          </mxGeometry>
        </mxCell>
        <mxCell id="-bzovc6Q7WTKnxHUFM9s-130" value="" style="endArrow=classic;html=1;rounded=0;exitX=0.5;exitY=0;exitDx=0;exitDy=0;entryX=0.332;entryY=1.004;entryDx=0;entryDy=0;entryPerimeter=0;" edge="1" parent="1" source="-bzovc6Q7WTKnxHUFM9s-125" target="-bzovc6Q7WTKnxHUFM9s-1">
          <mxGeometry width="50" height="50" relative="1" as="geometry">
            <mxPoint x="1050" y="350" as="sourcePoint" />
            <mxPoint x="990" y="300" as="targetPoint" />
          </mxGeometry>
        </mxCell>
        <mxCell id="-bzovc6Q7WTKnxHUFM9s-133" value="" style="endArrow=classic;html=1;rounded=0;entryX=0.75;entryY=1;entryDx=0;entryDy=0;" edge="1" parent="1">
          <mxGeometry width="50" height="50" relative="1" as="geometry">
            <mxPoint x="1016.5" y="1190" as="sourcePoint" />
            <mxPoint x="1016" y="1130" as="targetPoint" />
          </mxGeometry>
        </mxCell>
        <mxCell id="-bzovc6Q7WTKnxHUFM9s-164" value="1&#39;b1" style="edgeLabel;html=1;align=center;verticalAlign=middle;resizable=0;points=[];" vertex="1" connectable="0" parent="-bzovc6Q7WTKnxHUFM9s-133">
          <mxGeometry x="-0.6281" y="2" relative="1" as="geometry">
            <mxPoint y="17" as="offset" />
          </mxGeometry>
        </mxCell>
        <mxCell id="-bzovc6Q7WTKnxHUFM9s-170" value="10" style="edgeLabel;html=1;align=center;verticalAlign=middle;resizable=0;points=[];" vertex="1" connectable="0" parent="-bzovc6Q7WTKnxHUFM9s-133">
          <mxGeometry x="-0.4384" y="-1" relative="1" as="geometry">
            <mxPoint x="-2" y="-52" as="offset" />
          </mxGeometry>
        </mxCell>
        <mxCell id="-bzovc6Q7WTKnxHUFM9s-134" value="" style="endArrow=classic;html=1;rounded=0;entryX=0.25;entryY=1;entryDx=0;entryDy=0;" edge="1" parent="1">
          <mxGeometry width="50" height="50" relative="1" as="geometry">
            <mxPoint x="956.5" y="1190" as="sourcePoint" />
            <mxPoint x="956" y="1130" as="targetPoint" />
          </mxGeometry>
        </mxCell>
        <mxCell id="-bzovc6Q7WTKnxHUFM9s-165" value="1&#39;b0" style="edgeLabel;html=1;align=center;verticalAlign=middle;resizable=0;points=[];" vertex="1" connectable="0" parent="-bzovc6Q7WTKnxHUFM9s-134">
          <mxGeometry x="-0.4949" y="1" relative="1" as="geometry">
            <mxPoint x="-2" y="21" as="offset" />
          </mxGeometry>
        </mxCell>
        <mxCell id="-bzovc6Q7WTKnxHUFM9s-168" value="00" style="edgeLabel;html=1;align=center;verticalAlign=middle;resizable=0;points=[];" vertex="1" connectable="0" parent="-bzovc6Q7WTKnxHUFM9s-134">
          <mxGeometry x="-0.457" y="1" relative="1" as="geometry">
            <mxPoint y="-52" as="offset" />
          </mxGeometry>
        </mxCell>
        <mxCell id="-bzovc6Q7WTKnxHUFM9s-135" value="" style="endArrow=none;html=1;rounded=0;" edge="1" parent="1">
          <mxGeometry width="50" height="50" relative="1" as="geometry">
            <mxPoint x="959" y="1158" as="sourcePoint" />
            <mxPoint x="953" y="1150" as="targetPoint" />
            <Array as="points" />
          </mxGeometry>
        </mxCell>
        <mxCell id="-bzovc6Q7WTKnxHUFM9s-136" value="1" style="edgeLabel;html=1;align=center;verticalAlign=middle;resizable=0;points=[];" vertex="1" connectable="0" parent="-bzovc6Q7WTKnxHUFM9s-135">
          <mxGeometry x="0.436" relative="1" as="geometry">
            <mxPoint x="13" y="2" as="offset" />
          </mxGeometry>
        </mxCell>
        <mxCell id="-bzovc6Q7WTKnxHUFM9s-142" value="" style="endArrow=none;html=1;rounded=0;" edge="1" parent="1">
          <mxGeometry width="50" height="50" relative="1" as="geometry">
            <mxPoint x="1019" y="1159" as="sourcePoint" />
            <mxPoint x="1013" y="1151" as="targetPoint" />
            <Array as="points" />
          </mxGeometry>
        </mxCell>
        <mxCell id="-bzovc6Q7WTKnxHUFM9s-143" value="1" style="edgeLabel;html=1;align=center;verticalAlign=middle;resizable=0;points=[];" vertex="1" connectable="0" parent="-bzovc6Q7WTKnxHUFM9s-142">
          <mxGeometry x="0.436" relative="1" as="geometry">
            <mxPoint x="13" y="2" as="offset" />
          </mxGeometry>
        </mxCell>
        <mxCell id="-bzovc6Q7WTKnxHUFM9s-144" value="&amp;amp; ~0b11" style="rounded=1;whiteSpace=wrap;html=1;" vertex="1" parent="1">
          <mxGeometry x="1072" y="1253" width="48" height="46" as="geometry" />
        </mxCell>
        <mxCell id="-bzovc6Q7WTKnxHUFM9s-145" value="" style="endArrow=classic;html=1;rounded=0;entryX=0.5;entryY=1;entryDx=0;entryDy=0;" edge="1" parent="1" target="-bzovc6Q7WTKnxHUFM9s-144">
          <mxGeometry width="50" height="50" relative="1" as="geometry">
            <mxPoint x="1096" y="1330" as="sourcePoint" />
            <mxPoint x="914" y="1202" as="targetPoint" />
          </mxGeometry>
        </mxCell>
        <mxCell id="-bzovc6Q7WTKnxHUFM9s-146" value="" style="endArrow=classic;html=1;rounded=0;entryX=0.25;entryY=1;entryDx=0;entryDy=0;exitX=0.5;exitY=0;exitDx=0;exitDy=0;" edge="1" parent="1" source="-bzovc6Q7WTKnxHUFM9s-144" target="-bzovc6Q7WTKnxHUFM9s-113">
          <mxGeometry width="50" height="50" relative="1" as="geometry">
            <mxPoint x="969" y="1215" as="sourcePoint" />
            <mxPoint x="1019" y="1165" as="targetPoint" />
            <Array as="points">
              <mxPoint x="1096" y="1200" />
              <mxPoint x="1110" y="1200" />
            </Array>
          </mxGeometry>
        </mxCell>
        <mxCell id="-bzovc6Q7WTKnxHUFM9s-163" value="10" style="edgeLabel;html=1;align=center;verticalAlign=middle;resizable=0;points=[];" vertex="1" connectable="0" parent="-bzovc6Q7WTKnxHUFM9s-146">
          <mxGeometry x="-0.5252" relative="1" as="geometry">
            <mxPoint x="14" y="-99" as="offset" />
          </mxGeometry>
        </mxCell>
        <mxCell id="-bzovc6Q7WTKnxHUFM9s-147" value="" style="endArrow=none;html=1;rounded=0;" edge="1" parent="1">
          <mxGeometry width="50" height="50" relative="1" as="geometry">
            <mxPoint x="1113" y="1184" as="sourcePoint" />
            <mxPoint x="1107" y="1176" as="targetPoint" />
            <Array as="points" />
          </mxGeometry>
        </mxCell>
        <mxCell id="-bzovc6Q7WTKnxHUFM9s-148" value="32" style="edgeLabel;html=1;align=center;verticalAlign=middle;resizable=0;points=[];" vertex="1" connectable="0" parent="-bzovc6Q7WTKnxHUFM9s-147">
          <mxGeometry x="0.436" relative="1" as="geometry">
            <mxPoint x="12" y="1" as="offset" />
          </mxGeometry>
        </mxCell>
        <mxCell id="-bzovc6Q7WTKnxHUFM9s-149" value="" style="endArrow=classic;html=1;rounded=0;exitX=0.5;exitY=0;exitDx=0;exitDy=0;" edge="1" parent="1" source="-bzovc6Q7WTKnxHUFM9s-132">
          <mxGeometry width="50" height="50" relative="1" as="geometry">
            <mxPoint x="990" y="1080" as="sourcePoint" />
            <mxPoint x="1040" y="1040" as="targetPoint" />
            <Array as="points">
              <mxPoint x="985" y="1080" />
              <mxPoint x="1040" y="1080" />
            </Array>
          </mxGeometry>
        </mxCell>
        <mxCell id="-bzovc6Q7WTKnxHUFM9s-152" value="load" style="edgeLabel;html=1;align=center;verticalAlign=middle;resizable=0;points=[];" vertex="1" connectable="0" parent="-bzovc6Q7WTKnxHUFM9s-149">
          <mxGeometry x="-0.2411" relative="1" as="geometry">
            <mxPoint x="31" y="-50" as="offset" />
          </mxGeometry>
        </mxCell>
        <mxCell id="-bzovc6Q7WTKnxHUFM9s-150" value="" style="endArrow=none;html=1;rounded=0;" edge="1" parent="1">
          <mxGeometry width="50" height="50" relative="1" as="geometry">
            <mxPoint x="1043" y="1068" as="sourcePoint" />
            <mxPoint x="1037" y="1060" as="targetPoint" />
            <Array as="points" />
          </mxGeometry>
        </mxCell>
        <mxCell id="-bzovc6Q7WTKnxHUFM9s-151" value="1" style="edgeLabel;html=1;align=center;verticalAlign=middle;resizable=0;points=[];" vertex="1" connectable="0" parent="-bzovc6Q7WTKnxHUFM9s-150">
          <mxGeometry x="0.436" relative="1" as="geometry">
            <mxPoint x="13" y="2" as="offset" />
          </mxGeometry>
        </mxCell>
        <mxCell id="-bzovc6Q7WTKnxHUFM9s-153" value="" style="endArrow=classic;html=1;rounded=0;entryX=1;entryY=0.5;entryDx=0;entryDy=0;" edge="1" parent="1" target="-bzovc6Q7WTKnxHUFM9s-113">
          <mxGeometry width="50" height="50" relative="1" as="geometry">
            <mxPoint x="1240" y="1115" as="sourcePoint" />
            <mxPoint x="1290" y="1090" as="targetPoint" />
          </mxGeometry>
        </mxCell>
        <mxCell id="-bzovc6Q7WTKnxHUFM9s-154" value="if U: 00&lt;div&gt;if JAL: 01&lt;/div&gt;&lt;div&gt;if JALR: 10&lt;/div&gt;" style="edgeLabel;html=1;align=center;verticalAlign=middle;resizable=0;points=[];" vertex="1" connectable="0" parent="-bzovc6Q7WTKnxHUFM9s-153">
          <mxGeometry x="-0.4662" y="2" relative="1" as="geometry">
            <mxPoint y="23" as="offset" />
          </mxGeometry>
        </mxCell>
        <mxCell id="-bzovc6Q7WTKnxHUFM9s-193" value="MX7S" style="edgeLabel;html=1;align=center;verticalAlign=middle;resizable=0;points=[];rotation=0;" vertex="1" connectable="0" parent="-bzovc6Q7WTKnxHUFM9s-153">
          <mxGeometry x="-0.1087" y="-1" relative="1" as="geometry">
            <mxPoint x="2" y="-14" as="offset" />
          </mxGeometry>
        </mxCell>
        <mxCell id="-bzovc6Q7WTKnxHUFM9s-155" value="" style="endArrow=classic;html=1;rounded=0;entryX=0;entryY=0.25;entryDx=0;entryDy=0;" edge="1" parent="1" target="-bzovc6Q7WTKnxHUFM9s-125">
          <mxGeometry width="50" height="50" relative="1" as="geometry">
            <mxPoint x="960" y="330" as="sourcePoint" />
            <mxPoint x="930" y="280" as="targetPoint" />
          </mxGeometry>
        </mxCell>
        <mxCell id="-bzovc6Q7WTKnxHUFM9s-156" value="if JAL: 1&lt;div&gt;if JALR: 1&lt;/div&gt;&lt;div&gt;else: 0&lt;/div&gt;" style="edgeLabel;html=1;align=center;verticalAlign=middle;resizable=0;points=[];" vertex="1" connectable="0" parent="-bzovc6Q7WTKnxHUFM9s-155">
          <mxGeometry x="-0.3375" relative="1" as="geometry">
            <mxPoint x="-18" y="30" as="offset" />
          </mxGeometry>
        </mxCell>
        <mxCell id="-bzovc6Q7WTKnxHUFM9s-184" value="MX5S" style="edgeLabel;html=1;align=center;verticalAlign=middle;resizable=0;points=[];" vertex="1" connectable="0" parent="-bzovc6Q7WTKnxHUFM9s-155">
          <mxGeometry x="-0.0241" y="-1" relative="1" as="geometry">
            <mxPoint y="-11" as="offset" />
          </mxGeometry>
        </mxCell>
        <mxCell id="-bzovc6Q7WTKnxHUFM9s-166" value="" style="endArrow=classic;html=1;rounded=0;entryX=0;entryY=0.5;entryDx=0;entryDy=0;" edge="1" parent="1" target="-bzovc6Q7WTKnxHUFM9s-132">
          <mxGeometry width="50" height="50" relative="1" as="geometry">
            <mxPoint x="880" y="1115" as="sourcePoint" />
            <mxPoint x="1060" y="1050" as="targetPoint" />
          </mxGeometry>
        </mxCell>
        <mxCell id="-bzovc6Q7WTKnxHUFM9s-167" value="&lt;div&gt;&lt;br&gt;&lt;/div&gt;&lt;div&gt;&lt;span style=&quot;background-color: light-dark(#ffffff, var(--ge-dark-color, #121212)); color: light-dark(rgb(0, 0, 0), rgb(255, 255, 255));&quot;&gt;if U(S): 01&lt;/span&gt;&lt;/div&gt;&lt;div&gt;if JAL: 10&lt;/div&gt;&lt;div&gt;if JALR: 10&lt;/div&gt;&lt;div&gt;else: 00&lt;/div&gt;" style="edgeLabel;html=1;align=center;verticalAlign=middle;resizable=0;points=[];" vertex="1" connectable="0" parent="-bzovc6Q7WTKnxHUFM9s-166">
          <mxGeometry x="-0.0229" y="-2" relative="1" as="geometry">
            <mxPoint x="-35" y="33" as="offset" />
          </mxGeometry>
        </mxCell>
        <mxCell id="-bzovc6Q7WTKnxHUFM9s-192" value="MX6S" style="edgeLabel;html=1;align=center;verticalAlign=middle;resizable=0;points=[];rotation=-60;" vertex="1" connectable="0" parent="-bzovc6Q7WTKnxHUFM9s-166">
          <mxGeometry x="-0.1887" y="-1" relative="1" as="geometry">
            <mxPoint x="39" as="offset" />
          </mxGeometry>
        </mxCell>
        <mxCell id="-bzovc6Q7WTKnxHUFM9s-178" value="" style="endArrow=none;html=1;rounded=0;" edge="1" parent="1">
          <mxGeometry width="50" height="50" relative="1" as="geometry">
            <mxPoint x="233" y="798" as="sourcePoint" />
            <mxPoint x="227" y="790" as="targetPoint" />
            <Array as="points" />
          </mxGeometry>
        </mxCell>
        <mxCell id="-bzovc6Q7WTKnxHUFM9s-179" value="1" style="edgeLabel;html=1;align=center;verticalAlign=middle;resizable=0;points=[];" vertex="1" connectable="0" parent="-bzovc6Q7WTKnxHUFM9s-178">
          <mxGeometry x="0.436" relative="1" as="geometry">
            <mxPoint x="10" y="2" as="offset" />
          </mxGeometry>
        </mxCell>
      </root>
    </mxGraphModel>
  </diagram>
</mxfile>
